<svg width="96" height="22" viewBox="0 0 96 22" fill="none" xmlns="http://www.w3.org/2000/svg">
    <path
        d="M7.67702 21.5447C3.33784 21.5447 0 18.2372 0 13.8372C0 9.4372 3.33784 6.09928 7.67702 6.09928C11.2576 6.09928 14.3224 8.49651 14.7775 11.7131H11.3183C10.9542 10.3475 9.43697 9.34617 7.67702 9.34617C5.21916 9.34617 3.33784 11.2882 3.33784 13.8372C3.33784 16.3558 5.21916 18.2979 7.67702 18.2979C9.43697 18.2979 10.9845 17.2965 11.3486 15.8096H14.8079C14.4134 19.1778 11.288 21.5447 7.67702 21.5447Z"
        fill="white" />
    <path d="M19.5666 0V21.2413H16.1985V0H19.5666Z" fill="white" />
    <path
        d="M35.7924 13.5034C35.7924 13.8979 35.762 14.3227 35.7013 14.6261H24.2617C24.5954 16.993 26.143 18.4799 28.6615 18.4799C30.4822 18.4799 31.9083 17.6303 32.2118 16.3558H35.6103C35.0641 19.4813 32.2421 21.5447 28.6008 21.5447C24.2617 21.5447 20.8935 18.1765 20.8935 13.7461C20.8935 9.4372 24.2617 6.09928 28.5402 6.09928C32.5456 6.09928 35.7924 9.1641 35.7924 13.5034ZM24.383 12.0468H32.1207C31.9083 10.1958 30.3911 8.891 28.3581 8.891C26.3554 8.891 24.8989 10.1351 24.383 12.0468Z"
        fill="white" />
    <path
        d="M54.5933 6.09928C58.1739 6.09928 60.6621 8.43583 60.6621 12.1682V21.2413H57.2332V12.9268C57.2332 10.7117 56.0195 9.34617 54.0168 9.34617C52.3478 9.34617 50.7093 10.4082 50.7093 12.9268V21.2413H47.3107V12.9268C47.3107 10.6813 46.0666 9.34617 44.0639 9.34617C42.4254 9.34617 40.7564 10.3779 40.7564 12.9268V21.2413H37.3883V6.40273H40.7564V8.49651C41.8488 6.67583 43.7302 6.09928 45.2777 6.09928C47.4321 6.09928 48.9493 6.91859 49.8596 8.70893C50.7093 7.10066 52.5602 6.09928 54.5933 6.09928Z"
        fill="white" />
    <path
        d="M71.0186 9.61927H67.1346V15.5972C67.1346 17.4785 68.2877 18.2372 69.9262 18.2372C70.2904 18.2372 70.6848 18.2068 71.0186 18.1158V21.2413C70.5028 21.3627 69.7442 21.4234 69.198 21.4234C65.9208 21.4234 63.7361 19.4206 63.7361 15.6579V9.61927H60.9141V6.40273H63.7361V4.38576L67.1346 2.42758V6.40273H71.0186V9.61927Z"
        fill="white" />
    <path
        d="M83.2672 6.40273H86.6657V21.2413H83.2672V18.6316C82.2051 20.4827 80.3845 21.5447 78.0176 21.5447C74.0729 21.5447 70.9172 18.0854 70.9172 13.8068C70.9172 9.52823 74.0729 6.09928 78.0176 6.09928C80.3845 6.09928 82.2051 7.16135 83.2672 9.01237V6.40273ZM78.7459 18.3282C81.3251 18.3282 83.2672 16.3861 83.2672 13.8068C83.2672 11.2579 81.3251 9.31582 78.7459 9.31582C76.2274 9.31582 74.255 11.3186 74.255 13.8068C74.255 16.3254 76.2274 18.3282 78.7459 18.3282Z"
        fill="white" />
    <path d="M89.416 16.6367V4.91016H96L89.416 16.6367Z" fill="#2563EB" />
</svg>
    