<svg width="96" height="22" viewBox="0 0 96 22" fill="none" xmlns="http://www.w3.org/2000/svg">
    <path
        d="M7.67717 22C3.3379 22 0 18.6225 0 14.1296C0 9.63662 3.3379 6.22817 7.67717 6.22817C11.2578 6.22817 14.3226 8.67606 14.7778 11.9606H11.3185C10.9544 10.5662 9.43715 9.54366 7.67717 9.54366C5.21926 9.54366 3.3379 11.5268 3.3379 14.1296C3.3379 16.7014 5.21926 18.6845 7.67717 18.6845C9.43715 18.6845 10.9847 17.662 11.3489 16.1437H14.8081C14.4137 19.5831 11.2882 22 7.67717 22Z"
        fill="black" />
    <path d="M19.567 0V21.6901H16.1988V0H19.567Z" fill="black" />
    <path
        d="M35.793 13.7887C35.793 14.1915 35.7627 14.6254 35.702 14.9352H24.2621C24.5959 17.3521 26.1435 18.8704 28.6621 18.8704C30.4827 18.8704 31.9089 18.0028 32.2124 16.7014H35.611C35.0648 19.893 32.2427 22 28.6014 22C24.2621 22 20.8939 18.5606 20.8939 14.0366C20.8939 9.63662 24.2621 6.22817 28.5407 6.22817C32.5462 6.22817 35.793 9.35775 35.793 13.7887ZM24.3835 12.3014H32.1213C31.9089 10.4113 30.3917 9.07887 28.3586 9.07887C26.3559 9.07887 24.8993 10.3493 24.3835 12.3014Z"
        fill="black" />
    <path
        d="M54.5943 6.22817C58.175 6.22817 60.6632 8.61408 60.6632 12.4254V21.6901H57.2343V13.2C57.2343 10.938 56.0205 9.54366 54.0178 9.54366C52.3488 9.54366 50.7102 10.6282 50.7102 13.2V21.6901H47.3116V13.2C47.3116 10.907 46.0675 9.54366 44.0648 9.54366C42.4262 9.54366 40.7572 10.5972 40.7572 13.2V21.6901H37.389V6.53803H40.7572V8.67606C41.8496 6.8169 43.731 6.22817 45.2785 6.22817C47.433 6.22817 48.9502 7.06479 49.8606 8.89296C50.7102 7.2507 52.5612 6.22817 54.5943 6.22817Z"
        fill="black" />
    <path
        d="M71.0199 9.82254H67.1358V15.9268C67.1358 17.8479 68.2889 18.6225 69.9275 18.6225C70.2917 18.6225 70.6862 18.5916 71.0199 18.4986V21.6901C70.5041 21.8141 69.7455 21.8761 69.1993 21.8761C65.9221 21.8761 63.7373 19.831 63.7373 15.9887V9.82254H60.9152V6.53803H63.7373V4.47843L67.1358 2.47887V6.53803H71.0199V9.82254Z"
        fill="black" />
    <path
        d="M83.2687 6.53803H86.6673V21.6901H83.2687V19.0254C82.2066 20.9155 80.386 22 78.0191 22C74.0743 22 70.9185 18.4676 70.9185 14.0986C70.9185 9.72958 74.0743 6.22817 78.0191 6.22817C80.386 6.22817 82.2066 7.31268 83.2687 9.20282V6.53803ZM78.7474 18.7155C81.3267 18.7155 83.2687 16.7324 83.2687 14.0986C83.2687 11.4958 81.3267 9.51268 78.7474 9.51268C76.2288 9.51268 74.2564 11.5577 74.2564 14.0986C74.2564 16.6704 76.2288 18.7155 78.7474 18.7155Z"
        fill="black" />
    <path d="M89.417 16.9873V5.01465H96L89.417 16.9873Z" fill="#2563EB" />
</svg>
    